<svg id="Layer_1" data-name="Layer 1" xmlns="http://www.w3.org/2000/svg" viewBox="0 0 624.91 1230.36">
  <defs>
    <style>
      .cls-1,.cls-10,.cls-11,.cls-12,.cls-2,.cls-3,.cls-7,.cls-8,.cls-9{fill:none;}
      .cls-1,.cls-10,.cls-11,.cls-12,.cls-2,.cls-5,.cls-6,.cls-7,.cls-8,.cls-9{stroke:#020202;stroke-miterlimit:10;}
      .cls-1{stroke-width:8px;}
      .cls-2{stroke-width:2px;}
      .cls-lbl{font-family:Arial,Helvetica,sans-serif;fill:#222;}
      .cls-num{font-size:45px;font-family:Georgia,serif;}
      .cls-5{stroke-width:6px;}
      .cls-6{stroke-width:4px;}
      .cls-10,.cls-11,.cls-12,.cls-8,.cls-9{stroke-width:3px;}
      .cls-9{stroke-dasharray:12.82 12.82;}
      .cls-10{stroke-dasharray:11.33 11.33;}
      .cls-11{stroke-dasharray:13.15 13.15;}
      .cls-12{stroke-dasharray:12;}
    </style>
  </defs>

  <!-- White background -->
  <rect width="624.91" height="1230.36" fill="white"/>

  <!-- ===== ORIGINAL GEOMETRY ===== -->
  <polyline class="cls-1" points="406.82 1226.36 405.27 1226.36 4 1226.36 4 4 620.91 4 620.91 1190.36"/>
  <polyline class="cls-1" points="483.82 1187.09 405.27 1187.09 405.27 1226.36"/>
  <polyline class="cls-1" points="622.91 1185.45 549.27 1185.45 549.27 1128.18"/>
  <polyline class="cls-1" points="405.27 1187.09 405.27 960.46 420 960.46"/>
  <line class="cls-1" x1="353.73" y1="710.09" x2="543.55" y2="710.09"/>
  <line class="cls-1" x1="144.27" y1="709.27" x2="2.73" y2="709.27"/>
  <polyline class="cls-1" points="406.09 716.64 406.09 889.27 407.73 845.91 620.46 845.91"/>

  <!-- Station 1 bed (lower-left) -->
  <path class="cls-2" d="M86.45,536.27l4.73-6.54,53.18,4.09,8.19,7.36,41.72,3.27,4.91,5.73-3.27,29.46-4.09,4.91-40.09-2.46-7.37.82-4.09,5.73-51.54-4.91-7.64-9.28-.37-.21a5.76,5.76,0,0,0-4.72-.35c-1.31.44-4,.07-9.36-3.25l1.63-31.91S75.64,533,81.36,542l-2.25,31.3" transform="translate(-11.55 -38.09)"/>
  <path class="cls-2" d="M81,541s.41-4.3,4.3-3.07l5.93-8.18" transform="translate(-11.55 -38.09)"/>
  <line class="cls-2" x1="74.52" y1="500.43" x2="72.27" y2="538.68"/>
  <line class="cls-2" x1="141.2" y1="503.91" x2="138.95" y2="543.8"/>
  <rect class="cls-2" x="37.5" y="567.73" width="26.59" height="45"/>
  <circle class="cls-2" cx="94.36" cy="584.73" r="17.18"/>

  <!-- Station 2 bed (upper-left) -->
  <path class="cls-2" d="M86.45,366.27l4.73-6.54,53.18,4.09,8.19,7.36,41.72,3.27,4.91,5.73-3.27,29.46-4.09,4.91-40.09-2.46-7.37.82-4.09,5.73-51.54-4.91-7.64-9.28-.37-.21a5.76,5.76,0,0,0-4.72-.35c-1.31.44-4,.07-9.36-3.25l1.63-31.91S75.64,363,81.36,372l-2.25,31.3" transform="translate(-11.55 -38.09)"/>
  <path class="cls-2" d="M81,371s.41-4.3,4.3-3.07l5.93-8.18" transform="translate(-11.55 -38.09)"/>
  <line class="cls-2" x1="74.52" y1="330.43" x2="72.27" y2="368.68"/>
  <line class="cls-2" x1="141.2" y1="333.91" x2="138.95" y2="373.8"/>
  <rect class="cls-2" x="37.5" y="397.73" width="26.59" height="45"/>
  <circle class="cls-2" cx="94.36" cy="414.73" r="17.18"/>

  <!-- Station 4 bed (lower-right) -->
  <path class="cls-2" d="M552.77,536.27l-4.72-6.54-53.19,4.09-8.18,7.36L445,544.45l-4.9,5.73,3.27,29.46,4.09,4.91,40.09-2.46,7.36.82,4.09,5.73,51.55-4.91,7.64-9.28.36-.21a5.78,5.78,0,0,1,4.73-.35c1.31.44,4,.07,9.36-3.25L571,538.73S563.59,533,557.86,542l2.25,31.3" transform="translate(-11.55 -38.09)"/>
  <path class="cls-2" d="M558.27,541s-.41-4.3-4.29-3.07l-5.93-8.18" transform="translate(-11.55 -38.09)"/>
  <line class="cls-2" x1="541.61" y1="500.43" x2="543.86" y2="538.68"/>
  <line class="cls-2" x1="474.93" y1="503.91" x2="477.18" y2="543.8"/>
  <rect class="cls-2" x="563.59" y="605.82" width="26.59" height="45" transform="translate(1142.23 1218.55) rotate(-180)"/>
  <circle class="cls-2" cx="521.77" cy="584.73" r="17.18"/>

  <!-- Station 3 bed (upper-right) -->
  <path class="cls-2" d="M552.77,365.27l-4.72-6.54-53.19,4.09-8.18,7.36L445,373.45l-4.9,5.73,3.27,29.46,4.09,4.91,40.09-2.46,7.36.82,4.09,5.73,51.55-4.91,7.64-9.28.36-.21a5.78,5.78,0,0,1,4.73-.35c1.31.44,4,.07,9.36-3.25L571,367.73S563.59,362,557.86,371l2.25,31.3" transform="translate(-11.55 -38.09)"/>
  <path class="cls-2" d="M558.27,370s-.41-4.3-4.29-3.07l-5.93-8.18" transform="translate(-11.55 -38.09)"/>
  <line class="cls-2" x1="541.61" y1="329.43" x2="543.86" y2="367.68"/>
  <line class="cls-2" x1="474.93" y1="332.91" x2="477.18" y2="372.8"/>
  <rect class="cls-2" x="563.59" y="434.82" width="26.59" height="45" transform="translate(1142.23 876.55) rotate(-180)"/>
  <circle class="cls-2" cx="521.77" cy="413.73" r="17.18"/>

  <!-- Station numbers -->
  <text class="cls-num" transform="translate(200.7 540.31) scale(1.05 1)">1</text>
  <text class="cls-num" transform="translate(200.7 370.31) scale(1.05 1)">2</text>
  <text class="cls-num" transform="translate(381.7 370.31) scale(1.05 1)">3</text>
  <text class="cls-num" transform="translate(381.7 540.31) scale(1.05 1)">4</text>

  <!-- Bistro dividers and bar -->
  <line class="cls-5" x1="6.82" y1="186.45" x2="135.27" y2="187.27"/>
  <line class="cls-6" x1="433.09" y1="188.09" x2="623.73" y2="188.09"/>
  <rect class="cls-2" x="136.91" y="176" width="295.36" height="25.36"/>
  <line class="cls-2" x1="138.55" y1="188.91" x2="433.09" y2="188.09"/>

  <!-- Bistro room top-right -->
  <polyline class="cls-2" points="467.45 190.54 468.27 246.18 621.27 245.36"/>
  <polyline class="cls-2" points="533.73 184 532.91 76 620.46 76"/>
  <line class="cls-2" x1="544.36" y1="71.91" x2="544.36" y2="1.55"/>
  <line class="cls-2" x1="520.64" y1="22.82" x2="545.18" y2="22.82"/>
  <line class="cls-2" x1="520.64" y1="35.91" x2="546.82" y2="35.91"/>
  <line class="cls-2" x1="523.91" y1="47.36" x2="544.36" y2="46.55"/>
  <line class="cls-2" x1="523.09" y1="58" x2="545.18" y2="57.18"/>

  <!-- Top-left corner detail -->
  <polyline class="cls-2" points="66.55 5.64 66.55 61.27 1.91 61.27"/>

  <!-- Lixo circles -->
  <circle class="cls-2" cx="38.73" cy="93.09" r="17.18"/>
  <circle class="cls-2" cx="38.73" cy="143.09" r="17.18"/>

  <!-- PIA sink (mid-right, double circle) -->
  <circle class="cls-2" cx="548.73" cy="223.09" r="17.18"/>
  <circle class="cls-2" cx="548.73" cy="223.09" r="22.27"/>

  <!-- Lounge horizontal divider -->
  <line class="cls-2" x1="402.82" y1="1062.73" x2="81.27" y2="1062.73"/>
  <polyline class="cls-2" points="78 1064.36 79.64 1098.73 403.64 1098.73"/>

  <!-- Entrance door arc -->
  <path class="cls-7" d="M491.68,1221.5s8.9-58.84,65.87-53.57" transform="translate(-11.55 -38.09)"/>

  <!-- Lounge furniture -->
  <rect class="cls-7" x="195" y="820.55" width="72.82" height="108"/>
  <rect class="cls-7" x="360.27" y="773.09" width="34.36" height="65.45"/>
  <rect class="cls-7" x="360.27" y="961.27" width="35.18" height="67.09"/>
  <rect class="cls-7" x="39.55" y="788.64" width="80.18" height="164.45"/>
  <rect class="cls-7" x="220.36" y="1042.27" width="144" height="22.09"/>

  <!-- Bistro tables (ellipses) -->
  <ellipse class="cls-7" cx="187.45" cy="86.45" rx="32.73" ry="31.09"/>
  <ellipse class="cls-7" cx="337.45" cy="86.45" rx="32.73" ry="31.09"/>

  <!-- ÁREA PARA FOTOS 1 dashed box -->
  <line class="cls-8" x1="352.91" y1="706.82" x2="352.91" y2="700.82"/>
  <line class="cls-9" x1="352.91" y1="688" x2="352.91" y2="643.14"/>
  <polyline class="cls-8" points="352.91 636.73 352.91 630.73 358.91 630.73"/>
  <line class="cls-10" x1="370.24" y1="630.73" x2="477.88" y2="630.73"/>
  <polyline class="cls-8" points="483.55 630.73 489.55 630.73 489.55 636.73"/>
  <line class="cls-11" x1="489.55" y1="649.87" x2="489.55" y2="695.88"/>
  <line class="cls-8" x1="489.55" y1="702.45" x2="489.55" y2="708.45"/>

  <!-- ÁREA PARA FOTOS dashed (top-left studio) -->
  <polyline class="cls-12" points="99.27 189.73 99.27 296.91 4.36 295.27"/>

  <!-- Bottom section outlines -->
  <polyline class="cls-2" points="2.73 1165.61 194.18 1168.68 194.18 1214.7"/>
  <polyline class="cls-2" points="70.84 1224.52 69.61 1214.7 299.11 1215.93 299.73 1224.52 298.5 1143.52 408.34 1143.52"/>

  <!-- ===== STAIR LINES (ESCADA) ===== -->
  <line stroke="#444" stroke-width="1.5" x1="413" y1="900" x2="617" y2="900"/>
  <line stroke="#444" stroke-width="1.5" x1="413" y1="930" x2="617" y2="930"/>
  <line stroke="#444" stroke-width="1.5" x1="413" y1="960" x2="617" y2="960"/>
  <line stroke="#444" stroke-width="1.5" x1="413" y1="990" x2="617" y2="990"/>
  <line stroke="#444" stroke-width="1.5" x1="413" y1="1020" x2="617" y2="1020"/>
  <line stroke="#444" stroke-width="1.5" x1="413" y1="1050" x2="617" y2="1050"/>
  <line stroke="#444" stroke-width="1.5" x1="413" y1="1080" x2="617" y2="1080"/>
  <line stroke="#444" stroke-width="1.5" x1="413" y1="1110" x2="617" y2="1110"/>

  <!-- ===== TEXT LABELS ===== -->

  <!-- LIXO COMUM -->
  <text class="cls-lbl" x="63" y="87" font-size="16">LIXO</text>
  <text class="cls-lbl" x="63" y="106" font-size="16">COMUM</text>

  <!-- LIXO INFECTANTE -->
  <text class="cls-lbl" x="63" y="138" font-size="16">LIXO</text>
  <text class="cls-lbl" x="63" y="157" font-size="16">INFECTANTE</text>

  <!-- ÁREA DE FUMANTES / BISTRÔ -->
  <text class="cls-lbl" x="300" y="166" font-size="17" text-anchor="middle">ÁREA DE FUMANTES / BISTRÔ</text>

  <!-- PIA top-right room -->
  <text class="cls-lbl" x="567" y="100" font-size="16" text-anchor="middle">PIA</text>

  <!-- PIA mid-right (double circle sink) -->
  <text class="cls-lbl" x="548" y="258" font-size="16" text-anchor="middle">PIA</text>

  <!-- ÁREA PARA FOTOS (top-left studio, dashed) -->
  <text class="cls-lbl" x="50" y="233" font-size="14" text-anchor="middle" fill="#555">ÁREA PARA</text>
  <text class="cls-lbl" x="50" y="252" font-size="14" text-anchor="middle" fill="#555">FOTOS</text>

  <!-- ÁREA PARA FOTOS 1 (dashed mid-right) -->
  <text class="cls-lbl" x="422" y="662" font-size="14" text-anchor="middle" fill="#555">ÁREA PARA</text>
  <text class="cls-lbl" x="422" y="681" font-size="14" text-anchor="middle" fill="#555">FOTOS 1</text>

  <!-- BANHEIRO -->
  <text class="cls-lbl" x="512" y="734" font-size="17" text-anchor="middle">BANHEIRO</text>

  <!-- ESCADA -->
  <text class="cls-lbl" x="512" y="876" font-size="17" text-anchor="middle">ESCADA</text>

  <!-- SALA DE ARTISTAS -->
  <text class="cls-lbl" x="190" y="1048" font-size="17" text-anchor="middle">SALA DE ARTISTAS</text>

  <!-- IMPRESSORA -->
  <text class="cls-lbl" x="150" y="1128" font-size="16" text-anchor="middle">IMPRESSORA</text>

  <!-- COPA -->
  <text class="cls-lbl" x="310" y="1128" font-size="16" text-anchor="middle">COPA</text>

  <!-- ENTRADA PRINCIPAL + arrow -->
  <text class="cls-lbl" x="488" y="1136" font-size="15" text-anchor="middle">ENTRADA</text>
  <text class="cls-lbl" x="488" y="1154" font-size="15" text-anchor="middle">PRINCIPAL</text>
  <line x1="488" y1="1190" x2="488" y2="1170" stroke="#222" stroke-width="2.5"/>
  <polygon points="483,1177 488,1167 493,1177" fill="#222"/>

</svg>
